PathFileType	4	(X/Y/Z) flx_0kg_1.trc																										
DataRate	CameraRate	NumFrames	NumMarkers	Units	OrigDataRate	OrigDataStartFrame	OrigNumFrames																					
100	100	44	9	mm	100	199	794																					
Frame#	Time	gu			centelbow			EpL			centpxt8			centijc7			ij			ts			aa			ai		
		X1	Y1	Z1	X2	Y2	Z2	X3	Y3	Z3	X4	Y4	Z4	X5	Y5	Z5	X6	Y6	Z6	X7	Y7	Z7	X8	Y8	Z8	X9	Y9	Z9  
198	1.98	-80.801	43.755	134.363	146.929	78.225	223.445	134.315	106.003	233.872	-46.816	-153.158	-8.669	-46.816	31.938	-8.669	0	0	0	-156.89	-5.773	62.036	-103.136	59.293	146.308	-137.213	-96.707	127.071
199	1.99	-81.05	43.761	134.069	146.046	80.985	223.659	133.138	108.715	233.849	-46.816	-153.158	-8.669	-46.816	31.938	-8.669	0	0	0	-157.047	-5.903	61.914	-103.532	59.922	145.748	-137.097	-96.317	127.587
200	2	-81.226	43.749	133.809	145.132	83.74	224.07	131.919	111.414	234.02	-46.816	-153.158	-8.669	-46.816	31.938	-8.669	0	0	0	-156.811	-5.801	61.768	-103.556	60.809	145.146	-136.545	-95.676	128.08
201	2.01	-81.366	44.095	133.398	144.144	87.017	224.432	130.6	114.618	234.137	-46.816	-153.158	-8.669	-46.816	31.938	-8.669	0	0	0	-156.374	-5.795	61.546	-103.375	61.554	144.492	-135.855	-95.149	128.482
202	2.02	-81.367	44.606	133.067	143.234	90.447	224.922	129.357	117.966	234.385	-46.816	-153.158	-8.669	-46.816	31.938	-8.669	0	0	0	-156.008	-6.041	61.466	-103.272	61.967	144.041	-135.384	-94.91	129.013
203	2.03	-81.407	45.057	132.911	142.305	93.654	225.518	128.117	121.096	234.742	-46.816	-153.158	-8.669	-46.816	31.938	-8.669	0	0	0	-155.843	-6.455	61.687	-103.388	62.156	143.942	-135.243	-94.859	129.848
204	2.04	-81.931	45.497	132.545	140.972	96.791	225.644	126.496	124.159	234.634	-46.816	-153.158	-8.669	-46.816	31.938	-8.669	0	0	0	-155.911	-6.865	62.026	-103.726	62.33	143.962	-135.365	-94.809	130.796
205	2.05	-82.954	46.026	131.658	139.212	100.083	224.957	124.453	127.375	233.718	-46.816	-153.158	-8.669	-46.816	31.938	-8.669	0	0	0	-156.188	-7.044	62.162	-104.243	62.728	143.762	-135.633	-94.535	131.505
206	2.06	-83.846	46.487	130.586	137.561	103.321	224.036	122.522	130.532	232.566	-46.816	-153.158	-8.669	-46.816	31.938	-8.669	0	0	0	-156.497	-6.952	62	-104.775	63.376	143.262	-135.851	-94.013	131.856
207	2.07	-84.095	46.697	129.848	136.457	106.228	223.642	121.142	133.363	231.92	-46.816	-153.158	-8.669	-46.816	31.938	-8.669	0	0	0	-156.625	-6.852	61.697	-105.118	64.011	142.631	-135.858	-93.5	132.029
208	2.08	-83.867	46.935	129.419	135.742	109.151	223.683	120.151	136.213	231.683	-46.816	-153.158	-8.669	-46.816	31.938	-8.669	0	0	0	-156.597	-6.945	61.449	-105.295	64.444	142.05	-135.738	-93.178	132.262
209	2.09	-83.755	47.587	128.968	134.877	112.548	223.649	119.009	139.533	231.36	-46.816	-153.158	-8.669	-46.816	31.938	-8.669	0	0	0	-156.614	-7.194	61.351	-105.514	64.724	141.609	-135.714	-92.995	132.675
210	2.1	-84.181	48.38	128.518	133.494	115.972	223.563	117.363	142.878	230.997	-46.816	-153.158	-8.669	-46.816	31.938	-8.669	0	0	0	-156.73	-7.479	61.412	-105.84	64.968	141.326	-135.83	-92.838	133.264
211	2.11	-84.936	48.737	128.225	131.841	118.658	223.634	115.478	145.494	230.809	-46.816	-153.158	-8.669	-46.816	31.938	-8.669	0	0	0	-156.777	-7.614	61.478	-106.109	65.359	141.054	-135.865	-92.532	133.847
212	2.12	-85.4	48.722	127.888	130.543	120.828	223.562	113.966	147.597	230.495	-46.816	-153.158	-8.669	-46.816	31.938	-8.669	0	0	0	-156.61	-7.473	61.322	-106.156	66.025	140.551	-135.619	-91.957	134.174
213	2.13	-85.373	48.794	127.31	129.745	123.233	223.056	112.945	149.924	229.75	-46.816	-153.158	-8.669	-46.816	31.938	-8.669	0	0	0	-156.346	-7.336	61.031	-106.062	66.666	139.897	-135.259	-91.397	134.344
214	2.14	-85.262	48.937	126.756	128.961	125.902	222.512	111.922	152.504	228.951	-46.816	-153.158	-8.669	-46.816	31.938	-8.669	0	0	0	-156.312	-7.65	61.003	-106.15	66.82	139.507	-135.221	-91.293	134.79
215	2.15	-85.4	48.881	126.591	127.812	128.428	222.494	110.524	154.932	228.662	-46.816	-153.158	-8.669	-46.816	31.938	-8.669	0	0	0	-156.603	-8.348	61.384	-106.562	66.573	139.536	-135.594	-91.57	135.669
216	2.16	-85.78	48.823	126.592	126.372	130.924	222.693	108.831	157.321	228.604	-46.816	-153.158	-8.669	-46.816	31.938	-8.669	0	0	0	-156.901	-8.903	61.811	-107.032	66.501	139.606	-135.92	-91.688	136.591
217	2.17	-86.325	49.128	126.159	124.878	133.713	222.195	107.09	159.99	227.903	-46.816	-153.158	-8.669	-46.816	31.938	-8.669	0	0	0	-156.897	-9.069	61.893	-107.242	66.863	139.31	-135.78	-91.403	137.132
218	2.18	-86.932	49.569	125.304	123.505	136.505	220.922	105.489	162.657	226.481	-46.816	-153.158	-8.669	-46.816	31.938	-8.669	0	0	0	-156.659	-9.127	61.732	-107.22	67.34	138.76	-135.283	-91.02	137.377
219	2.19	-87.394	49.622	124.699	122.36	138.766	219.782	104.135	164.801	225.209	-46.816	-153.158	-8.669	-46.816	31.938	-8.669	0	0	0	-156.487	-9.395	61.687	-107.239	67.572	138.339	-134.838	-90.874	137.702
220	2.2	-87.577	49.261	124.621	121.444	140.572	219.262	103.012	166.49	224.545	-46.816	-153.158	-8.669	-46.816	31.938	-8.669	0	0	0	-156.5	-9.87	61.843	-107.428	67.57	138.13	-134.606	-90.95	138.213
221	2.21	-87.627	48.98	124.502	120.542	142.606	218.758	101.885	168.394	223.886	-46.816	-153.158	-8.669	-46.816	31.938	-8.669	0	0	0	-156.525	-10.358	61.998	-107.651	67.571	137.914	-134.386	-91.023	138.735
222	2.22	-87.812	49.146	123.809	119.381	145.348	217.621	100.472	170.986	222.579	-46.816	-153.158	-8.669	-46.816	31.938	-8.669	0	0	0	-156.442	-10.703	61.99	-107.815	67.765	137.509	-134.011	-90.912	139.12
223	2.23	-88.141	49.643	122.849	117.97	148.58	216.196	98.797	174.058	220.963	-46.816	-153.158	-8.669	-46.816	31.938	-8.669	0	0	0	-156.317	-10.852	61.839	-107.986	68.215	136.921	-133.533	-90.556	139.387
224	2.24	-88.373	50.196	122.228	116.571	151.84	215.238	97.139	177.161	219.782	-46.816	-153.158	-8.669	-46.816	31.938	-8.669	0	0	0	-156.217	-10.859	61.685	-108.213	68.835	136.313	-133.054	-90.033	139.663
225	2.25	-88.446	50.652	122.056	115.258	154.883	214.927	95.582	180.062	219.205	-46.816	-153.158	-8.669	-46.816	31.938	-8.669	0	0	0	-156.184	-10.882	61.639	-108.518	69.413	135.838	-132.69	-89.537	140.042
226	2.26	-88.575	50.83	122.129	113.842	157.495	215.05	93.946	182.553	219.014	-46.816	-153.158	-8.669	-46.816	31.938	-8.669	0	0	0	-156.284	-11.071	61.672	-108.943	69.765	135.491	-132.551	-89.248	140.481
227	2.27	-88.846	50.584	122.28	112.264	159.508	215.416	92.172	184.461	219.03	-46.816	-153.158	-8.669	-46.816	31.938	-8.669	0	0	0	-156.416	-11.433	61.685	-109.385	69.894	135.162	-132.506	-89.165	140.878
228	2.28	-89.151	50.198	122.283	110.633	161.32	215.678	90.351	186.169	218.937	-46.816	-153.158	-8.669	-46.816	31.938	-8.669	0	0	0	-156.395	-11.798	61.685	-109.692	70.005	134.842	-132.319	-89.099	141.249
229	2.29	-89.489	50.217	121.94	108.934	163.663	215.441	88.449	188.386	218.371	-46.816	-153.158	-8.669	-46.816	31.938	-8.669	0	0	0	-156.331	-12.006	61.744	-109.977	70.281	134.578	-132.08	-88.867	141.68
230	2.3	-89.817	50.686	121.389	107.214	166.566	214.85	86.51	191.139	217.48	-46.816	-153.158	-8.669	-46.816	31.938	-8.669	0	0	0	-156.464	-12.098	61.842	-110.449	70.682	134.332	-132.039	-88.502	142.163
231	2.31	-89.898	51.08	120.973	105.725	169.32	214.436	84.801	193.735	216.791	-46.816	-153.158	-8.669	-46.816	31.938	-8.669	0	0	0	-156.713	-12.22	61.947	-111.023	71.044	134.088	-132.138	-88.167	142.656
232	2.32	-89.74	51.136	120.661	104.498	171.591	214.184	83.368	195.852	216.277	-46.816	-153.158	-8.669	-46.816	31.938	-8.669	0	0	0	-156.794	-12.46	62.063	-111.451	71.258	133.898	-132.107	-87.975	143.141
233	2.33	-89.674	51.33	119.902	103.216	174.023	213.306	81.882	198.126	215.144	-46.816	-153.158	-8.669	-46.816	31.938	-8.669	0	0	0	-156.673	-12.808	62.122	-111.714	71.329	133.707	-131.893	-87.929	143.536
234	2.34	-89.891	52.095	118.494	101.594	177.253	211.517	80.038	201.175	213.103	-46.816	-153.158	-8.669	-46.816	31.938	-8.669	0	0	0	-156.483	-13.124	61.955	-111.933	71.429	133.305	-131.566	-87.864	143.678
235	2.35	-90.302	52.933	117.222	99.617	180.684	209.931	77.824	204.407	211.248	-46.816	-153.158	-8.669	-46.816	31.938	-8.669	0	0	0	-156.144	-13.186	61.476	-112.046	71.822	132.565	-130.99	-87.516	143.501
236	2.36	-90.741	53.139	116.874	97.486	183.327	209.64	75.472	206.86	210.653	-46.816	-153.158	-8.669	-46.816	31.938	-8.669	0	0	0	-155.601	-13.001	60.942	-112.029	72.508	131.755	-130.166	-86.882	143.284
237	2.37	-91.095	52.846	117.27	95.42	185.255	210.351	73.211	208.616	211.028	-46.816	-153.158	-8.669	-46.816	31.938	-8.669	0	0	0	-155.104	-12.882	60.833	-112.12	73.125	131.402	-129.482	-86.308	143.523
238	2.38	-91.289	52.615	117.727	93.527	187.185	211.098	71.137	210.38	211.426	-46.816	-153.158	-8.669	-46.816	31.938	-8.669	0	0	0	-154.815	-13.029	61.216	-112.414	73.435	131.579	-129.124	-86.023	144.267
239	2.39	-91.269	52.693	117.691	91.882	189.466	211.142	69.312	212.488	211.129	-46.816	-153.158	-8.669	-46.816	31.938	-8.669	0	0	0	-154.632	-13.337	61.589	-112.74	73.551	131.734	-128.871	-85.922	144.976
240	2.4	-91.081	53.033	117.019	90.457	192.026	210.342	67.71	214.87	210.001	-46.816	-153.158	-8.669	-46.816	31.938	-8.669	0	0	0	-154.543	-13.711	61.566	-113.065	73.585	131.45	-128.633	-85.896	145.253
241	2.41	-90.91	53.453	116.136	89.029	194.603	209.319	66.112	217.27	208.655	-46.816	-153.158	-8.669	-46.816	31.938	-8.669	0	0	0	-154.605	-14.107	61.227	-113.478	73.59	130.816	-128.484	-85.895	145.191
